Coordinates
nRows=8
nColumns=38

# SIMM Motion File Header:
name Coordinates
datacolumns 38
datarows 8
otherdata 1
range 2.99380000000000020000 3.00080000000000040000

Units are S.I. units (second, meters, Newtons, ...)
Angles are in degrees.

endheader
time	pelvis_tilt	pelvis_list	pelvis_rotation	pelvis_tx	pelvis_ty	pelvis_tz	hip_flexion_r	hip_adduction_r	hip_rotation_r	knee_angle_r	ankle_angle_r	subtalar_angle_r	mtp_angle_r	hip_flexion_l	hip_adduction_l	hip_rotation_l	knee_angle_l	ankle_angle_l	subtalar_angle_l	mtp_angle_l	lumbar_extension	lumbar_bending	lumbar_rotation	arm_flex_r	arm_add_r	arm_rot_r	elbow_flex_r	pro_sup_r	wrist_flex_r	wrist_dev_r	arm_flex_l	arm_add_l	arm_rot_l	elbow_flex_l	pro_sup_l	wrist_flex_l	wrist_dev_l
      2.99380000000000020000	     -5.19939065341823440000	      2.02402311518303170000	     -3.45264054442460690000	      0.93692916694830530000	      1.08028882429610930000	     -0.30401415714560237000	    -11.28495459352725300000	      2.66138338225791580000	      2.15900377524718180000	    -40.21676370685819500000	     -7.03773430937312930000	      0.00000000000000937148	     -0.00000000000001706783	     30.31940381004558200000	      4.02535054199575800000	      2.74912415717857430000	    -16.75316078310745400000	     11.16762142748611300000	      0.00000000000000003630	      0.00000000000002926304	     -8.72359999056170210000	     -1.93024725763023340000	     10.93895221066095200000	     -6.29006543477700130000	    -28.02024266439512000000	      5.34158768552761650000	    136.31294783209697000000	    117.25743362066387000000	     -0.00000000000000091146	      0.00000000000001646863	    -36.95078979529927900000	    -20.78363725811486900000	      3.77871146720393410000	    119.44759458648879000000	     98.56851277856942800000	      0.00000000000000988000	      0.00000000000001834775
      2.99480000000000010000	     -5.16701061305931210000	      2.03356290369595620000	     -3.38496012974493170000	      0.93696225495120689000	      1.08002616215398330000	     -0.30402530127351218000	    -11.17823185224388100000	      2.67133538554149610000	      2.13407975610642930000	    -40.70623328320562000000	     -6.91530068256772970000	      0.00000000000000925811	     -0.00000000000001698365	     30.26861578201432600000	      4.07040780942668250000	      2.61133675242639950000	    -16.71928946110531900000	     11.17058461960439800000	      0.00000000000000002206	      0.00000000000002940185	     -8.75964406262298740000	     -1.95453862519330170000	     10.84228387689009100000	     -6.39078978305557670000	    -28.00124172116688500000	      5.36785039517957600000	    136.24956521631120000000	    117.24314841396973000000	     -0.00000000000000090991	      0.00000000000001657002	    -36.87978239357255500000	    -20.81736493520017800000	      3.77192075914406820000	    119.46152508013353000000	     98.57389366617860600000	      0.00000000000000995501	      0.00000000000001843226
      2.99580000000000000000	     -5.13313317161938180000	      2.04305065213734680000	     -3.31702941079630030000	      0.93699296577164415000	      1.07975688244069730000	     -0.30403541414558671000	    -11.07035547494522600000	      2.68146621959612470000	      2.10780945721935260000	    -41.19918344942122700000	     -6.79622356573780540000	      0.00000000000000914497	     -0.00000000000001690035	     30.21795395366646300000	      4.11527092936750270000	      2.46929578184999170000	    -16.69646699761175800000	     11.16959591243410100000	      0.00000000000000001221	      0.00000000000002953849	     -8.79762676205935890000	     -1.97909715275263730000	     10.74430205837063600000	     -6.49202458145970330000	    -27.98150296155159500000	      5.39252234723839410000	    136.18194505809302000000	    117.22807721521799000000	     -0.00000000000000090788	      0.00000000000001666631	    -36.80618721303314800000	    -20.85227215243034500000	      3.76567058443891730000	    119.47481385223968000000	     98.58023111916072900000	      0.00000000000001003059	      0.00000000000001851626
      2.99680000000000040000	     -5.09791468671083430000	      2.05251847872213800000	     -3.24891442014767810000	      0.93702130279069173000	      1.07948085184696340000	     -0.30404434788091872000	    -10.96119501481060300000	      2.69172936618910040000	      2.08023587455855410000	    -41.69553447597900200000	     -6.68052578189961730000	      0.00000000000000903144	     -0.00000000000001681706	     30.16754595690041500000	      4.15990936235503920000	      2.32323745409839070000	    -16.68461764121044100000	     11.16252900206279900000	      0.00000000000000000027	      0.00000000000002967379	     -8.83735852408389630000	     -2.00396414649268670000	     10.64507508618317500000	     -6.59377864032798480000	    -27.96099243887683300000	      5.41560832286157630000	    136.11011501748428000000	    117.21228182308388000000	     -0.00000000000000090712	      0.00000000000001676680	    -36.73006980402315900000	    -20.88837689918748800000	      3.75993863455236490000	    119.48746643803712000000	     98.58746384353172200000	      0.00000000000001010641	      0.00000000000001860022
      2.99780000000000020000	     -5.06126548180859000000	      2.06196602558951580000	     -3.18061456794340100000	      0.93704745685629143000	      1.07919823423539580000	     -0.30405204972421573000	    -10.85094536370087900000	      2.70211177801232340000	      2.05134778521300550000	    -42.19507142540194200000	     -6.56826147350474710000	      0.00000000000000891776	     -0.00000000000001673321	     30.11719018724796700000	      4.20431609716194290000	      2.17352553508421260000	    -16.68352873569531200000	     11.14987939142743100000	     -0.00000000000000001297	      0.00000000000002981066	     -8.87891652988475320000	     -2.02914918751618690000	     10.54460258345421800000	     -6.69602214953689770000	    -27.93969728362373300000	      5.43711394114937360000	    136.03412741738643000000	    117.19579941828842000000	     -0.00000000000000090529	      0.00000000000001686947	    -36.65148975319240800000	    -20.92568893765850600000	      3.75470237174036650000	    119.49952112578249000000	     98.59552712370596300000	      0.00000000000001018200	      0.00000000000001868406
      2.99880000000000010000	     -5.02305018747871480000	      2.07138889366291500000	     -3.11209256067190280000	      0.93707163591132370000	      1.07890925331358420000	     -0.30405853060117111000	    -10.73986163480758700000	      2.71260798480471710000	      2.02110235394967490000	    -42.69754877882700600000	     -6.45948140603895380000	      0.00000000000000880172	     -0.00000000000001664864	     30.06664064427525700000	      4.24849875510697750000	      2.02055509435773220000	    -16.69298499269469000000	     11.13204239616576400000	     -0.00000000000000002864	      0.00000000000002994500	     -8.92243028494790910000	     -2.05465309928329450000	     10.44284890106814200000	     -6.79871415656718270000	    -27.91760773006428000000	      5.45704692782615110000	    135.95403906840610000000	    117.17866390202083000000	     -0.00000000000000090404	      0.00000000000001697099	    -36.57050282460283300000	    -20.96421365235283200000	      3.74994033065323820000	    119.51101881887209000000	     98.60435834534249000000	      0.00000000000001025751	      0.00000000000001876816
      2.99980000000000000000	     -4.98319280147461980000	      2.08078400480239270000	     -3.04332065611491660000	      0.93709399496099444000	      1.07861404952917690000	     -0.30406379944875961000	    -10.62811988450020100000	      2.72321184324398220000	      1.98947099421578420000	    -43.20275025778215600000	     -6.35421430779689620000	      0.00000000000000868458	     -0.00000000000001656248	     30.01573821513968100000	      4.29245699850752070000	      1.86472596046865790000	    -16.71281070683034300000	     11.10883536738884900000	     -0.00000000000000004164	      0.00000000000003007805	     -8.96796574529114390000	     -2.08047341930507020000	     10.33979105972449400000	     -6.90182093247350540000	    -27.89471352939438700000	      5.47541636727361070000	    135.86990481625145000000	    117.16091333323880000000	     -0.00000000000000090392	      0.00000000000001707074	    -36.48716749321929600000	    -21.00395126730016300000	      3.74563268937768830000	    119.52199071742125000000	     98.61390198253651800000	      0.00000000000001033325	      0.00000000000001885225
      3.00080000000000040000	     -4.94165929949047820000	      2.09013995847120610000	     -2.97429009633094270000	      0.93711466576018909000	      1.07831268595956800000	     -0.30406784244855256000	    -10.51584150738231600000	      2.73392538391606090000	      1.95645217372877430000	    -43.71048134319809000000	     -6.25246940625399720000	      0.00000000000000856745	     -0.00000000000001647601	     29.96437466647672600000	      4.33617094361243890000	      1.70643504393756280000	    -16.74284057538903500000	     11.08025754361517600000	     -0.00000000000000005447	      0.00000000000003021003	     -9.01554210888824770000	     -2.10659638724508900000	     10.23542821692628200000	     -7.00531585484980910000	    -27.87100834694185600000	      5.49223185139592650000	    135.78178147059168000000	    117.14258596533826000000	     -0.00000000000000090354	      0.00000000000001716978	    -36.40154796127328000000	    -21.04489593983058200000	      3.74176051697852150000	    119.53246351502267000000	     98.62411019072664000000	      0.00000000000001040917	      0.00000000000001893605
